<svg width="240" height="324" viewBox="0 0 240 324" fill="none" xmlns="http://www.w3.org/2000/svg">
<path fill-rule="evenodd" clip-rule="evenodd" d="M47.4645 285.957C75.0656 290.151 103.167 290.362 130.998 288.839C142.012 288.014 153.06 287.865 164.065 288.92C170.568 289.404 199.081 291.584 201.411 285.757C199.944 254.73 196.975 223.438 187.865 193.598C184.119 183.002 180.901 174.208 173.589 165.44C171.284 163.046 166.315 158.025 163.467 156.387C161 154.969 159.969 155.475 158.552 153.079C157.144 150.433 156.106 146.012 154.107 144.145C152.072 142.243 149.056 142.924 145.317 143.536C146.004 134.251 141.72 131.887 135.818 130.121C125.444 126.16 115.198 128.15 112.587 140.784C107.746 140.784 105.026 142.868 102.086 144.871C100.884 145.689 101.72 147.775 100.285 148.419C97.6289 149.365 92.9354 149.133 90.3781 150.297C78.7492 155.591 68.3917 163.269 61.5897 174.481C46.3403 198.42 35.8652 248.847 37.6779 277.22C36.8837 278.466 37.9819 280.253 38.2611 281.593C38.6135 282.758 39.7545 283.533 40.9454 283.401C42.6072 285.189 45.1775 285.587 47.4645 285.957Z" fill="#D08B5B"/>
<path fill-rule="evenodd" clip-rule="evenodd" d="M104.887 142.681C106.588 140.906 109.254 139.846 111.78 139.906L111.898 139.91L112.755 139.948L112.182 142.759L112.153 142.893L112.037 143.381L111.881 144.02L111.826 144.255L111.767 144.515C111.758 144.557 111.749 144.599 111.74 144.64L111.715 144.763L111.47 145.958L111.516 146.064L111.503 146.335C111.465 147.317 111.676 147.856 112.142 148.029L112.179 148.042L112.445 148.127L112.661 148.598C113.16 149.673 113.625 150.613 114.103 151.498C115.496 154.079 117.158 156.66 119.074 159.253C120.895 161.717 122.791 164.069 124.763 166.302C125.65 167.306 126.586 168.314 127.583 169.341L128.441 170.22L128.714 170.496L128.898 170.679L129.127 170.904L129.456 171.218L129.696 171.454L129.773 171.527C129.871 171.618 129.946 171.679 130.014 171.723L130.039 171.739L130.115 171.783L134.093 175.969L135.498 176.742L136.165 177.112L136.3 176.842L136.328 176.756L137.806 173.508L138.709 171.518C140.562 167.425 142.004 164.169 143.322 161.069L143.486 160.682L143.973 159.529L144.23 158.913C145.408 156.088 146.279 153.908 147.058 151.79L147.169 151.488L147.333 151.035L147.576 150.352L147.621 150.236C147.832 149.694 147.313 147.724 146.801 146.645L146.772 146.585L146.638 146.318L146.494 146.036C146.156 145.375 145.911 144.641 145.704 143.753C145.671 143.609 145.64 143.465 145.61 143.319L145.567 143.099L145.54 142.954L145.502 142.752L145.448 142.463L146.593 142.271L147.222 142.169L147.496 142.126C147.851 142.071 148.167 142.026 148.465 141.988L148.576 141.974L148.775 141.951L148.782 141.99L149.191 142.03L149.494 142.062C150.989 142.22 152.143 142.394 152.962 142.587L153.042 142.607L153.189 142.644L153.255 142.661C154 142.862 154.574 143.295 155.028 143.934C155.34 144.373 155.542 144.793 155.862 145.589L155.977 145.876L156.358 146.818C156.402 146.932 156.471 147.116 156.564 147.368L156.888 148.248L158.507 152.723L160.165 153.595C160.936 153.998 161.499 154.289 161.777 154.427L161.876 154.475L161.947 154.507L162.518 154.734L162.457 154.912L162.526 154.951C169.35 158.879 174.613 164.92 178.71 172.941L178.834 173.184L178.961 173.437C182.226 179.97 184.566 187.26 186.85 196.994L186.992 197.599L187.103 198.08L187.698 200.678C189.936 210.485 191.474 217.798 192.746 224.974L192.829 225.442L193.041 226.661C194.639 235.949 195.977 245.153 197.048 254.267L197.226 255.8C197.672 259.716 198.076 263.764 198.514 268.625L198.573 269.278L198.765 271.462C198.971 273.815 199.158 276.163 199.328 278.506L199.412 279.677L199.583 282.223L199.684 283.674L199.696 283.87L199.737 284.627L199.748 284.804C199.763 285.031 199.781 285.223 199.803 285.4L199.82 285.531L199.839 285.658C199.896 286.004 200.008 286.315 200.192 286.661L200.24 286.749L200.557 287.316L199.982 287.619C196.985 289.199 191.083 289.894 182.986 289.93L182.74 289.931H182.234C178.3 289.929 174.13 289.777 169.78 289.518L168.796 289.457L167.975 289.405C167.621 289.382 167.277 289.359 166.92 289.334L166.372 289.295L164.084 289.128C153.794 288.142 143.002 288.158 131.112 289.049C100.111 290.745 73.3535 290.029 48.2039 286.274L47.4422 286.16L46.881 286.068L46.5463 286.012C43.8786 285.557 42.2036 284.973 40.8965 283.747L40.8281 283.682L40.771 283.626L40.7463 283.627C39.4303 283.621 38.2255 282.76 37.7785 281.49L37.7552 281.421L37.7258 281.327L37.7054 281.232C37.6846 281.141 37.6586 281.043 37.627 280.935L37.6022 280.852L37.3944 280.171L38.0944 280.043C38.1547 280.032 38.2174 279.99 38.2782 279.902L38.3365 279.818L38.4374 279.678L38.6812 279.344C38.9409 278.98 39.0687 278.751 39.132 278.521C39.188 278.318 39.209 278.057 39.2029 277.695L39.1982 277.517L39.1706 276.875C39.1688 276.824 39.1676 276.778 39.1668 276.735L39.166 276.67L39.1655 275.766L39.1677 274.772C39.1694 274.338 39.1718 273.915 39.1751 273.5L39.1808 272.882L39.1864 272.385C39.2201 269.631 39.3009 266.88 39.4287 264.134C39.6787 258.771 40.1074 253.417 40.7139 248.083C41.9661 237.07 43.8843 226.389 46.4936 216.068L46.7557 215.037C49.5771 204.007 52.2972 195.503 55.7547 187.639C60.1521 177.637 65.5138 169.405 72.2648 162.824C75.9764 159.206 80.087 156.152 84.4553 153.81C86.4643 152.732 88.5994 151.776 90.8891 150.916L91.2172 150.794L91.7469 150.601L92.1532 150.451L93.4626 149.961C93.7378 149.858 94.0373 149.742 94.3915 149.603L94.6108 149.517L96.9555 148.581L97.3448 148.428L97.7777 148.259L98.0959 148.137C98.6163 147.939 99.0874 147.765 99.5248 147.613L99.7833 147.523L100.018 147.444L101.019 147.098L100.999 148.009C100.986 148.614 101.142 149.072 101.488 149.4L101.5 149.411L101.512 149.42L101.523 149.427L101.583 149.426L101.82 149.425C101.844 149.411 101.867 149.395 101.888 149.377C102.225 149.091 102.381 148.708 102.533 147.829L102.573 147.584L102.644 147.126L102.672 146.952C102.773 146.342 102.861 146.005 103.032 145.62C103.28 145.063 103.608 144.52 103.993 144.021L104.083 143.907L104.443 143.474L104.498 143.406C104.625 143.244 104.689 143.13 104.716 143.025L104.723 142.997L104.759 142.815L104.887 142.681Z" fill="#FFCF77"/>
<path fill-rule="evenodd" clip-rule="evenodd" d="M161.709 155.686C161.54 155.591 161.689 155.349 161.859 155.429C170.045 159.27 176.324 166.01 180.743 173.797C185.318 181.861 187.926 191.016 190.174 199.963L190.255 200.287C192.652 209.859 194.691 219.53 196.526 229.224C198.384 239.042 199.876 248.92 201.076 258.839C201.67 263.744 202.199 268.657 202.612 273.58C202.818 276.04 203.005 278.502 203.174 280.965C203.241 281.95 203.304 282.935 203.359 283.921L203.398 284.661C203.431 285.331 203.511 286.004 203.345 286.666C203.202 287.236 202.9 287.753 202.635 288.276C202.109 289.312 200.67 289.141 200.104 288.276L199.939 288.024C199.564 287.444 199.252 286.905 199.134 286.183C199.021 285.483 199.016 284.751 198.965 284.044C198.871 282.745 198.791 281.444 198.7 280.144C198.508 277.407 198.293 274.672 198.055 271.94C197.583 266.545 197.078 261.155 196.457 255.774C195.354 246.213 193.969 236.677 192.337 227.191C190.742 217.925 188.727 208.753 186.624 199.593L186.406 198.645C182.724 182.652 177.048 164.233 161.709 155.686ZM74.5219 218.313C74.5821 218.153 74.8412 218.117 74.8849 218.313C75.4363 220.797 75.4908 223.355 75.5751 225.898C75.6581 228.406 75.6547 230.926 75.6182 233.435C75.4834 242.659 75.2303 251.876 75.0114 261.098C74.902 265.711 74.7993 270.325 74.7205 274.939C74.6907 276.669 74.6657 278.4 74.6449 280.13L74.6194 282.412C74.6068 283.422 74.5803 284.418 74.4573 285.426C74.3762 286.089 74.2033 286.722 73.8374 287.29C73.5777 287.693 73.2076 287.898 72.8469 288.172L72.7794 288.225C72.3192 288.588 71.8346 288.591 71.3789 288.225L71.2466 288.12C70.8113 287.779 70.4351 287.513 70.1571 286.975C69.7705 286.226 69.7086 285.412 69.6429 284.587C69.5432 283.336 69.6093 282.067 69.6222 280.812C69.648 278.295 69.6828 275.778 69.727 273.261C69.889 264.031 70.2093 254.799 70.7931 245.586C71.068 241.246 71.4409 236.892 71.9411 232.57L72.0364 231.76C72.1881 230.488 72.3264 229.194 72.4823 227.896C70.1548 226.258 68.1089 224.271 66.3643 222.016C66.2358 221.851 66.4473 221.618 66.6023 221.778C68.385 223.625 70.429 225.097 72.6919 226.255C73.0627 223.536 73.5725 220.833 74.5219 218.313ZM113.406 136.038C113.438 136.013 113.488 136.002 113.518 136.038C114.019 136.621 113.917 137.513 113.933 138.253L113.935 138.322C113.971 139.403 113.978 140.48 113.974 141.562L113.963 145.005V145.005C113.962 145.478 113.923 145.971 113.948 146.448L113.96 146.632V146.632C114.223 146.901 114.345 147.29 114.256 147.681C114.24 148.182 113.978 148.601 113.596 148.863L114.415 150.026V150.026L115.235 151.188C116.925 153.586 118.633 155.962 120.414 158.294C122.229 160.671 124.166 162.959 126.193 165.159C127.183 166.234 128.191 167.294 129.221 168.33C129.64 168.751 130.069 169.162 130.494 169.577L130.916 169.995C131.165 170.244 131.479 170.491 131.645 170.808C131.742 170.994 131.765 171.454 131.799 171.53C132.112 172.218 131.579 173.314 130.692 172.971L130.732 172.944C130.894 172.832 130.79 172.83 130.422 172.939C130.19 172.939 129.972 172.885 129.768 172.779L129.707 172.746C129.421 172.6 129.165 172.318 128.932 172.092L128.874 172.037C128.342 171.538 127.834 171.009 127.324 170.487C126.258 169.398 125.217 168.286 124.209 167.145C122.197 164.867 120.291 162.496 118.485 160.053C116.646 157.563 114.936 154.947 113.466 152.222C112.908 151.188 112.396 150.135 111.906 149.068C110.952 148.762 110.73 147.746 110.796 146.602C110.444 145.782 110.127 144.945 109.939 144.089C109.914 143.972 110.064 143.861 110.155 143.964C110.46 144.311 110.743 144.68 111.014 145.059C111.178 144.257 111.386 143.519 111.483 143.048L111.906 140.971V140.971C109.522 140.847 106.909 141.827 105.265 143.542C105.177 143.989 104.833 144.309 104.498 144.727C104.115 145.204 103.781 145.74 103.532 146.3C102.98 147.542 103.291 149.372 102.219 150.283C102.107 150.378 101.983 150.444 101.854 150.485C102.362 152.98 102.132 155.73 102.121 158.262L102.12 158.485C102.123 161.319 102.028 164.154 101.919 166.986L101.807 169.788C101.663 173.525 101.569 177.264 101.932 180.98C103.59 179.512 105.304 178.11 107.076 176.775C108.242 175.897 109.431 175.05 110.641 174.235L111.625 173.578C112.804 172.787 114.011 171.973 115.302 171.407C116.99 170.667 118.595 170.921 120.225 171.681C121.848 172.437 123.422 173.316 125.014 174.135C126.633 174.969 128.256 175.796 129.877 176.624C130.951 177.173 132.525 177.669 133.313 178.68C133.363 178.456 133.422 178.233 133.49 178.011C133.412 177.672 133.442 177.306 133.632 176.957C136.28 172.091 138.729 167.109 141.161 162.133C142.392 159.615 143.562 157.067 144.796 154.55L145.995 152.099C146.195 151.691 146.396 151.282 146.598 150.875C146.901 150.265 147.216 149.661 147.522 149.053C147.651 148.796 147.813 148.54 147.939 148.281L147.998 148.151C148.001 148.144 148.292 147.23 148.067 147.317L148.048 147.326C147.934 147.391 147.842 147.247 147.916 147.155C148.233 146.763 148.675 147.11 148.856 147.474C149.355 148.473 148.441 150.043 148.089 151L148.07 151.054C146.979 154.144 145.744 157.175 144.478 160.197C142.05 165.989 139.443 171.693 136.841 177.406L136.81 177.504V177.504C137.365 177.079 137.957 176.693 138.465 176.317C139.744 175.369 141.061 174.467 142.376 173.568C144.788 171.92 147.265 170.381 149.782 168.902L150.286 168.607C151.544 167.874 152.79 167.28 154.283 167.5C155.67 167.704 156.959 168.45 158.212 169.055L158.341 169.117L162.213 170.958C161.799 169.307 161.351 167.664 160.883 166.027C159.972 162.835 158.968 159.669 157.88 156.531C156.864 153.599 155.765 150.7 154.604 147.823L154.254 146.96C153.78 145.775 153.309 144.484 151.955 144.119C150.602 143.754 149.049 144.295 147.813 143.523C147.7 143.453 147.714 143.268 147.85 143.234L148.614 143.041C150.047 142.685 151.726 142.326 153.081 142.673C154.556 143.051 155.776 144.289 156.491 145.575C157.286 147.007 157.847 148.609 158.451 150.136L158.546 150.376C159.239 152.104 159.905 153.842 160.543 155.591C161.818 159.086 162.978 162.624 164.029 166.194C164.535 167.914 165.015 169.643 165.477 171.376C165.609 171.874 165.828 172.478 166.008 173.108C166.214 173.309 166.408 173.533 166.591 173.789C166.894 174.213 166.677 174.71 166.3 174.964C166.285 175.397 166.189 175.805 165.959 176.155C165.06 177.52 162.683 177.168 162.78 175.333C162.794 175.052 162.904 174.784 163.069 174.558L163.065 174.521V174.521L163.046 174.454V174.454C162.633 174.256 162.219 174.035 161.782 173.819L157.719 171.811V171.811C156.542 171.229 155.238 170.33 153.93 170.109C152.71 169.902 151.422 170.811 150.374 171.36L150.306 171.395C147.772 172.694 145.257 174.037 142.751 175.39C141.528 176.051 140.321 176.74 139.103 177.408C138.084 177.968 136.984 178.77 135.839 179.086C135.35 179.466 134.769 179.415 134.302 179.128C134.516 180.45 134.503 181.806 134.568 183.158C134.656 184.965 134.67 186.777 134.699 188.586L134.71 189.265C134.787 193.265 134.829 197.266 134.844 201.266C134.898 215.513 134.74 229.764 134.704 244.011C134.685 251.169 134.543 258.333 134.357 265.488C134.279 268.52 134.114 271.549 133.936 274.576L133.838 276.227C133.631 279.711 133.508 283.234 132.864 286.671C132.78 287.119 132.021 287.131 131.947 286.671C131.353 282.988 131.32 279.224 131.206 275.498L131.182 274.753C131.045 270.752 130.98 266.754 130.994 262.751C131.045 248.499 131.415 234.255 131.718 220.007C131.87 212.848 131.973 205.686 132.209 198.529C132.328 194.948 132.462 191.37 132.62 187.79C132.691 186.192 132.76 184.596 132.866 183L132.914 182.316C132.947 181.87 132.973 181.429 133.006 180.992C131.564 181.519 130.246 180.544 128.949 179.877C127.455 179.108 125.961 178.337 124.465 177.57L122.969 176.803V176.803L119.975 175.275C118.626 174.586 117.587 173.901 116.149 174.709C110.968 177.617 106.208 181.486 101.893 185.545C101.066 186.324 99.3175 186.115 99.1079 184.81C98.2127 179.235 98.7571 173.58 99.2142 167.989L99.3827 165.913C99.5868 163.434 99.8092 160.954 100.105 158.485C100.238 157.38 100.37 156.276 100.516 155.174L100.628 154.347C100.811 153.041 100.93 151.742 101.319 150.488C101.196 150.449 101.078 150.383 100.973 150.283C99.8027 149.173 100.367 147.246 100.901 145.925C101.428 144.621 102.232 143.483 103.238 142.504C103.458 142.29 103.767 142.152 104.078 142.145C106.519 140.528 109.197 139.72 111.984 140.603C112.062 140.229 112.142 139.855 112.226 139.482L112.311 139.11C112.528 138.185 112.609 136.656 113.406 136.038ZM138.422 282.127C139.179 281.919 140.008 282.138 140.563 282.693C141.118 283.249 141.338 284.078 141.129 284.836C141.025 285.209 140.836 285.532 140.563 285.807C140.308 286.061 140.011 286.242 139.671 286.35L139.592 286.374L139.468 286.425C139.088 286.527 138.708 286.527 138.329 286.425C137.966 286.323 137.651 286.14 137.384 285.874C137.118 285.607 136.934 285.291 136.833 284.928C136.731 284.548 136.731 284.169 136.833 283.789L136.884 283.665V283.665C136.989 283.292 137.177 282.968 137.45 282.693C137.725 282.42 138.049 282.232 138.422 282.127ZM183.394 206.624C183.518 206.482 183.72 206.665 183.643 206.817C182.463 209.13 181.148 211.427 179.856 213.682C179.959 214.307 180.062 214.927 180.18 215.531C180.684 218.107 181.3 220.636 181.702 223.236C183.147 232.582 183.898 242.029 184.541 251.458C185.187 260.922 185.27 270.389 185.367 279.871C185.375 280.693 184.743 281.648 183.896 281.803C183.509 281.874 183.219 281.86 182.832 281.803C181.951 281.673 181.399 280.664 181.362 279.871C181.109 274.572 180.769 269.279 180.375 263.988C179.677 254.608 179.251 245.203 178.687 235.812L178.488 232.53C178.275 228.974 178.08 225.416 178.017 221.854C177.974 219.495 178.1 217.136 178.023 214.779C177.951 212.603 177.731 210.237 178.21 208.099C178.228 208.019 178.355 207.999 178.391 208.076C178.89 209.126 179.206 210.267 179.449 211.432C180.734 209.806 182.042 208.177 183.394 206.624ZM99.2256 149.149C99.4061 149.135 99.3989 149.406 99.2256 149.426C96.704 149.719 94.2679 150.746 91.8869 151.618L91.683 151.693C89.2775 152.566 86.9322 153.581 84.6752 154.791C80.2625 157.157 76.2104 160.209 72.6277 163.701C58.3238 177.644 51.8051 197.751 47.0286 216.646C44.3747 227.144 42.4874 237.82 41.2642 248.577C40.6593 253.897 40.2317 259.238 39.9824 264.586C39.8548 267.327 39.7743 270.071 39.7407 272.815C39.7234 274.221 39.7183 275.626 39.72 277.032C39.7208 277.676 39.8358 278.487 39.6636 279.113C39.5039 279.692 39.0535 280.202 38.7203 280.685C38.3254 281.257 37.6158 281.227 37.2154 280.685L37.0678 280.487C36.6408 279.921 36.223 279.379 36.162 278.638C36.0968 277.845 36.1428 277.026 36.1399 276.229C36.1331 274.622 36.153 273.016 36.1851 271.41C36.247 268.331 36.3682 265.254 36.5485 262.18C36.9144 255.942 37.5167 249.717 38.3791 243.528C39.912 232.527 42.2098 221.631 45.2195 210.94C48.0589 200.855 51.4228 190.799 56.2147 181.457C60.664 172.783 66.5009 164.714 74.2029 158.652C77.7845 155.833 81.6835 153.484 85.887 151.715C88.0071 150.822 90.2335 150.094 92.4976 149.678C94.7366 149.268 96.9659 149.325 99.2256 149.149ZM138.856 264.3C139.256 264.297 139.702 264.385 140.045 264.607L140.503 264.961V264.961C140.627 265.121 140.751 265.281 140.874 265.441C141.161 265.815 141.199 266.42 141.139 266.865C141.125 267.162 141.037 267.439 140.874 267.695L140.525 268.147V268.147C140.19 268.421 139.91 268.616 139.504 268.748C139.291 268.817 139.087 268.831 138.883 268.821L138.815 268.816L138.856 268.822L138.784 268.814V268.814C138.718 268.808 138.651 268.801 138.585 268.792C138.539 268.786 138.494 268.783 138.448 268.776C138.404 268.773 138.362 268.771 138.318 268.775C137.802 268.824 137.283 268.531 136.916 268.194C136.586 267.891 136.289 267.248 136.335 266.792L136.355 266.601C136.39 266.28 136.418 266.154 136.554 265.831C136.687 265.517 136.872 265.24 137.123 265.005C137.605 264.557 138.195 264.305 138.856 264.3ZM137.257 240.781C137.943 240.033 139.12 239.978 139.97 240.43C140.177 240.541 140.367 240.718 140.549 240.865C141.009 241.237 141.19 241.908 141.215 242.473C141.24 243.033 140.946 243.696 140.549 244.082L140.453 244.175V244.175C140.216 244.406 139.877 244.606 139.546 244.667C139.011 244.765 138.563 244.762 138.065 244.552C137.638 244.372 137.269 244.082 137.019 243.688L136.978 243.622C136.961 243.594 136.945 243.566 136.929 243.537L136.907 243.494C136.431 242.578 136.559 241.541 137.257 240.781ZM137.612 217.137C137.921 217.04 138.23 217.026 138.539 217.095C138.749 217.096 138.945 217.149 139.126 217.254C139.323 217.309 139.494 217.409 139.639 217.553C139.813 217.656 139.953 217.795 140.056 217.97C140.262 218.195 140.4 218.458 140.472 218.761L140.555 219.379L140.472 219.998L140.238 220.553V220.553C140.173 220.638 140.108 220.722 140.043 220.805C139.939 220.981 139.8 221.12 139.625 221.224C139.511 221.337 139.38 221.422 139.234 221.481C138.717 221.852 138.027 221.973 137.414 221.804C137.05 221.702 136.733 221.517 136.465 221.251C136.199 220.982 136.014 220.666 135.913 220.302L135.871 220.011C135.817 219.621 135.808 219.405 135.918 218.909C135.967 218.691 136.107 218.383 136.181 218.254C136.495 217.701 137.009 217.322 137.612 217.137ZM164.45 200.127C165.338 200.121 166.225 200.122 167.113 200.132L167.778 200.141C168.893 200.159 169.847 200.044 170.723 200.817C171.359 201.379 171.079 202.32 170.475 202.743C169.561 203.384 168.414 203.062 167.362 202.991C166.254 202.917 165.144 202.855 164.034 202.805C161.885 202.709 159.735 202.648 157.583 202.638C155.437 202.629 153.287 202.649 151.14 202.684C148.956 202.719 146.682 202.923 144.51 202.697C144.212 202.666 144.145 202.273 144.439 202.171C146.486 201.463 148.788 201.233 150.933 200.963C153.145 200.683 155.357 200.485 157.583 200.357C159.87 200.226 162.16 200.143 164.45 200.127ZM137.608 193.171L137.681 193.172C138.072 193.173 138.438 193.265 138.779 193.448L138.851 193.488L139.32 193.851C139.607 194.14 139.806 194.481 139.916 194.874L139.999 195.49V195.49C140.011 195.809 139.944 196.107 139.799 196.383C139.706 196.671 139.546 196.919 139.32 197.129C139.11 197.355 138.862 197.515 138.574 197.609C138.319 197.743 138.046 197.81 137.755 197.81L137.681 197.808C137.263 197.807 136.873 197.702 136.512 197.492L136.043 197.129V197.129C135.756 196.84 135.557 196.499 135.447 196.106L135.364 195.49V195.49C135.352 195.171 135.419 194.873 135.564 194.597C135.657 194.31 135.817 194.061 136.043 193.851C136.253 193.625 136.501 193.465 136.789 193.372C137.044 193.238 137.317 193.171 137.608 193.171V193.171ZM144.478 138.712C144.978 137.988 145.882 138.632 145.753 139.213C145.787 140.847 145.871 142.432 146.242 144.032C146.412 144.765 146.635 145.498 146.979 146.169L147.123 146.452C147.568 147.331 147.914 148.161 147.314 149.125C147.032 149.58 146.522 149.922 145.968 149.898C143.514 149.792 143.177 146.375 143.028 144.468C142.874 142.503 143.353 140.344 144.478 138.712Z" fill="black"/>
<path fill-rule="evenodd" clip-rule="evenodd" d="M161.197 73.4597C154.861 64.717 143.194 62.2028 133.077 64.3292C113.298 67.9437 94.4006 83.0715 90.9057 103.645C85.4533 116.092 88.9351 135.696 104.792 137.161C107.05 137.289 109.286 136.768 111.548 137.049C125.35 139.259 141.661 148.721 153.879 137.563C154.492 138.003 155.298 138.215 155.985 137.949C161.185 135.934 161.43 130.106 161.873 125.315C162.446 119.124 162.983 112.93 163.484 106.734C163.663 96.0473 167.888 82.6936 161.197 73.4597V73.4597Z" fill="#D08B5B"/>
<path fill-rule="evenodd" clip-rule="evenodd" d="M122.849 51.1819C131.177 50.738 146.521 54.5618 153.786 59.0447C165.623 66.3488 166.54 80.9189 166.057 83.4382C165.874 84.3996 165.288 85.2894 164.371 84.9937C165.149 91.613 165.088 95.3964 165.218 102.054L165.308 106.499C165.366 109.462 165.416 112.425 165.429 115.39C165.729 115.278 166.024 115.415 166.133 115.703C166.161 115.773 166.066 115.811 166.019 115.771C165.492 115.31 165.868 116.36 166.049 116.574C166.3 116.867 166.717 117.144 167.01 117.396L167.806 118.087V118.087L168.602 118.776C169.63 119.665 170.625 120.556 171.584 121.514L171.844 121.777C173.592 123.557 175.783 125.279 176.87 127.581C177.91 129.779 177.589 132.27 175.863 134.023C175.234 134.659 174.501 135.145 173.704 135.513C175.123 137.855 175.329 140.951 173.849 143.36C172.367 145.778 169.517 147.044 166.772 146.85C166.688 147.194 166.557 147.53 166.384 147.849C165.296 149.854 163.131 150.115 161.078 150.007L160.998 150.003C156.376 149.736 151.93 148.576 147.882 146.321C146.478 146.416 145.226 145.26 144.952 143.992C144.214 143.965 143.472 143.903 142.715 143.816C140.47 143.557 138.168 143.073 136.188 141.929C135.885 141.754 136.026 141.291 136.363 141.282C138.775 141.227 141.189 141.395 143.596 141.133C145.806 140.894 148.161 140.283 150.22 139.452C153.922 137.956 157.097 135.418 158.849 131.901C161.118 127.348 160.911 121.881 161.158 116.935C161.431 111.461 161.768 105.991 162.127 100.523L162.302 97.9013C162.651 92.7917 162.94 90.0583 163.825 84.7549C161.158 84.9937 150.079 80.9963 146.634 74.4577C140.096 88.3676 106.968 82.6749 105.499 104.089C105.486 104.271 105.199 104.22 105.189 104.047L105.162 103.559C105.148 103.318 105.136 103.08 105.128 102.845L105.121 102.61L104.601 102.616C104.601 102.681 104.508 102.705 104.485 102.635C103.994 101.238 101.653 101.688 100.635 102.02C99.7181 102.32 98.8537 102.781 98.0779 103.349C96.5199 104.491 95.3119 106.027 94.9113 107.948C94.1503 111.596 96.4672 115.312 99.5431 117.072C101.483 118.182 103.608 118.899 105.467 120.156C107.109 121.266 108.64 122.565 109.966 124.043C115.22 129.895 118.31 138.772 115.825 146.497C115.635 147.086 115.133 147.76 114.469 147.856C113.371 148.014 112.273 147.853 111.657 146.805C111.417 146.395 111.303 145.928 111.328 145.467C110.902 146.934 109.521 148.384 108.248 148.929C106.513 149.673 104.559 149.451 103.028 148.492L102.835 148.635C100.346 150.472 97.565 152.146 94.3758 151.808C92.0652 151.563 89.7968 150.383 88.5192 148.523C86.82 149.481 85.0048 150.244 83.1327 150.764L82.9335 150.818C80.3578 151.521 77.0724 152.166 74.6682 150.738C72.3597 149.367 71.5923 146.372 72.1341 143.871C72.1995 143.574 72.2817 143.284 72.3829 143.003C70.6457 143.096 68.9107 142.929 67.262 142.418C65.5776 141.895 63.9711 140.891 63.1637 139.264C62.2529 137.423 62.4953 135.331 63.1742 133.456C64.2599 130.449 66.0055 127.773 68.1791 125.442C70.2693 123.198 72.7906 121.295 75.411 119.708L75.8527 119.443C78.2115 118.033 81.056 116.38 83.8432 116.489C83.8347 116.453 83.8284 116.419 83.8242 116.383C83.4026 113.27 83.451 110.096 83.352 106.957C83.2613 104.07 83.158 101.183 83.0905 98.294C82.9809 93.382 83.0168 88.4493 83.6555 83.5713C84.2227 79.2429 85.243 75.022 87.1046 71.0592C89.0589 66.8958 92.002 63.343 95.6365 60.5489C103.264 54.6839 113.339 51.6891 122.849 51.1819ZM96.9415 108.874C97.7722 107.304 99.6632 106.809 101.322 107.092C103.648 107.49 105.229 109.527 106.587 111.279C108.012 113.116 105.039 114.847 104.274 113.067L104.093 112.647C103.478 111.236 102.753 109.748 101.499 108.828C100.167 107.851 98.2866 107.707 97.1102 109.005C97.0258 109.1 96.8846 108.978 96.9415 108.874Z" fill="black"/>
<path fill-rule="evenodd" clip-rule="evenodd" d="M152.447 123.814C151.749 124.726 150.487 125.424 149.073 125.758C147.726 126.076 146.237 126.063 144.952 125.574L144.842 125.53C143.882 125.131 142.959 124.325 142.609 123.484C142.47 123.149 142.423 122.809 142.518 122.492C142.604 122.207 142.805 121.944 143.14 121.719C143.245 121.648 143.386 121.643 143.52 121.666C143.686 121.696 143.851 121.774 143.95 121.879C144.499 122.464 145.297 123.034 146.241 123.024C146.969 123.017 147.564 122.729 148.141 122.404L148.546 122.172C148.937 121.949 149.334 121.739 149.782 121.643C150.586 121.471 151.56 121.785 152.154 122.302C152.412 122.528 152.601 122.793 152.652 123.078C152.695 123.318 152.634 123.569 152.447 123.814ZM148.271 107.866C149.866 108.836 152.297 111.099 150.581 113.504C148.56 115.624 145.652 113.193 144.218 112.093C142.889 111.241 141.396 113.433 142.629 114.428C152.986 122.099 157.19 108.12 149.078 106.726C148.184 106.572 147.853 107.566 148.271 107.866ZM130.272 92.9565L130.731 92.8308L131.198 92.7046L131.514 92.621C133.685 92.0526 136.079 91.5524 138.232 91.7966C139.017 91.8858 139.654 92.3277 139.765 93.1505C139.859 93.8448 139.41 94.7405 138.647 94.8639C136.119 95.2731 133.53 95.1404 130.991 95.5622C129.726 95.7721 128.471 96.0327 127.211 96.2675C126.252 96.4463 125.262 96.5091 124.296 96.6536L124.518 96.6845C124.596 96.695 124.576 96.8259 124.5 96.8206C124.181 96.7888 123.862 96.7838 123.543 96.8062L123.406 96.8174C123.197 96.8468 123.074 96.5978 123.26 96.4714C124.438 95.6723 125.437 94.8062 126.755 94.2172C127.895 93.7078 129.069 93.2879 130.272 92.9565ZM150.034 91.7309C151.703 90.0431 155.253 90.6917 157.238 91.4637C158.371 91.9046 159.449 92.462 160.346 93.2957L160.434 93.3778L160.568 93.5074C161.174 94.1007 161.85 94.9172 161.754 95.7725C161.739 95.903 161.668 96.052 161.521 96.0782C160.726 96.2191 159.945 95.7994 159.21 95.5468L158.724 95.3799C157.994 95.131 157.259 94.8932 156.506 94.7215C155.569 94.5085 154.614 94.3852 153.653 94.3975C152.681 94.4102 151.638 94.6845 150.712 94.2986C149.68 93.8685 149.145 92.6308 150.034 91.7309ZM133.546 105.343C133.12 105.778 132.557 106.024 131.838 105.878C131.275 105.764 130.204 105.198 129.349 104.327C128.764 103.731 128.274 102.986 128.141 102.123C128.11 101.923 128.004 101.794 127.864 101.713C127.754 101.65 127.609 101.617 127.451 101.633C127.316 101.647 127.173 101.696 127.063 101.76C126.853 101.883 126.768 102.057 126.75 102.188C126.582 103.444 127.067 104.69 127.823 105.741C128.843 107.159 130.342 108.199 131.222 108.442C132.73 108.859 134.318 108.527 135.488 107.478C136.425 106.639 136.905 105.545 137.35 104.421L137.436 104.203C137.536 103.948 137.635 103.695 137.741 103.445C137.952 102.943 137.884 102.509 137.68 102.171C137.453 101.796 137.034 101.532 136.569 101.451C136.138 101.376 135.677 101.458 135.313 101.721C135.006 101.944 134.758 102.296 134.67 102.817C134.527 103.663 134.195 104.635 133.609 105.276L133.546 105.343ZM159.389 100.442C159.038 100.259 158.763 100.204 158.373 100.321C158.158 100.386 157.945 100.51 157.778 100.676C157.613 100.842 157.494 101.047 157.448 101.275C157.334 101.838 157.026 102.365 156.587 102.708C156.213 103.001 155.739 103.157 155.215 103.069C154.648 102.975 154.109 102.611 153.737 102.183C153.634 102.064 153.549 101.931 153.467 101.796L153.418 101.715C153.235 101.413 153.057 101.132 152.804 100.91C152.709 100.825 152.564 100.767 152.425 100.767C152.368 100.767 152.31 100.776 152.255 100.793C151.692 101.359 151.583 101.788 151.602 102.214C151.621 102.661 151.797 103.113 152.081 103.535C152.748 104.524 154.015 105.335 154.869 105.519C156.04 105.771 157.202 105.469 158.134 104.815C159.093 104.142 159.804 103.097 160.025 101.92C160.079 101.636 160.056 101.33 159.948 101.064C159.843 100.805 159.659 100.583 159.389 100.442Z" fill="black"/>
</svg>
