<svg width="240" height="324" viewBox="0 0 240 324" fill="none" xmlns="http://www.w3.org/2000/svg">
<path fill-rule="evenodd" clip-rule="evenodd" d="M41.1971 209.213L192.565 221.234L192.723 222.263C195.259 238.789 196.541 250 196.567 255.897L196.567 256.078C196.567 261.925 198.361 271.225 201.95 283.977L202.172 284.762L40.9859 285.043L39.0845 246.66L41.1971 209.213ZM130.81 126.849C136.965 127.153 143.168 129.792 143.647 131.479C144.714 135.236 146.43 151.319 152.073 153.79C157.716 156.261 169.763 154.009 173.207 159.909C176.651 165.81 187.963 189.865 187.963 195.469C187.963 199.206 151.1 200.503 77.3754 199.361C78.3165 169.264 82.2403 153.443 89.1468 151.898L89.7633 151.762C99.7511 149.579 105.72 149.509 109.128 145.99C112.604 142.4 113.235 136.237 114.677 131.479C115.472 128.857 123.258 126.476 130.81 126.849Z" fill="#E9BEA0"/>
<path fill-rule="evenodd" clip-rule="evenodd" d="M144.308 136.255C144.331 136.237 144.354 136.232 144.38 136.245C144.859 136.475 144.959 136.936 145.123 137.415C145.364 138.117 145.643 138.802 145.901 139.497C146.414 140.892 146.904 142.285 147.477 143.657C148.064 145.068 148.673 146.455 149.37 147.818C149.706 148.477 150.067 149.124 150.435 149.767C150.688 150.213 150.925 150.826 151.259 151.244C151.284 151.111 151.32 150.984 151.362 150.866C151.318 150.887 151.275 150.91 151.235 150.935C151.151 150.988 151.049 150.883 151.1 150.8C151.282 150.5 151.518 150.297 151.789 150.16C152.537 149.329 169.022 153.293 173.528 157.745C181.69 165.808 187.199 175.778 190.823 186.383C192.823 192.235 194.666 198.145 196.569 204.029C198.58 210.251 200.68 216.446 202.696 222.664C203.137 224.031 202.174 225.274 200.957 225.724C198.69 226.561 196.406 227.349 194.104 228.078C195.221 232.371 196.003 236.754 196.565 241.15C197.725 250.215 197.87 259.464 199.698 268.434C200.118 270.492 200.649 272.522 201.21 274.546L201.339 275.013C201.673 276.201 201.978 277.399 202.387 278.561C202.74 279.561 203.197 280.569 203.444 281.601C203.733 282.814 203.306 284.139 202.172 284.762C201.261 285.263 199.958 285.056 199.409 284.116C199.297 283.923 199.229 283.714 199.201 283.503C199.119 283.327 199.043 283.148 198.975 282.964C198.949 282.893 198.926 282.82 198.904 282.746L198.838 282.526C198.678 282.002 198.53 281.474 198.382 280.945C198.141 280.098 197.899 279.253 197.631 278.413L197.494 277.993C196.831 275.972 196.237 273.935 195.72 271.872C193.867 264.476 193.474 256.818 192.966 249.238L192.939 248.846C192.479 242.053 192.204 235.275 192.768 228.497L192.691 228.522V228.522L192.614 228.545C191.881 228.769 191.146 228.989 190.409 229.203C190.385 229.211 190.364 229.22 190.341 229.226C189.869 229.372 189.384 229.511 188.891 229.64L188.594 229.716L188.385 229.773L188.164 229.836C187.466 230.039 186.753 230.272 186.029 230.249C184.829 230.441 183.608 230.557 182.408 230.562C182.778 236.608 183.204 242.651 183.713 248.687C184.225 254.755 184.903 260.8 185.606 266.844C185.953 269.831 186.325 272.811 186.735 275.786C186.942 277.295 187.157 278.796 187.432 280.292C187.715 281.823 188.216 283.458 187.913 285.006C187.907 285.003 187.901 285.001 187.894 285.001C187.793 285.449 187.523 285.851 187.051 286.128C186.187 286.633 184.979 286.337 184.482 285.454C184.44 285.38 184.4 285.304 184.362 285.225C183.853 285.443 183.295 285.528 182.611 285.534L173.328 285.627V285.627C169.109 285.669 164.889 285.714 160.668 285.775C147.416 285.97 134.163 286.196 120.911 286.356L115.941 286.413C108.487 286.491 101.03 286.646 93.5761 286.643C89.8474 286.643 86.1226 286.631 82.3937 286.54C80.5874 286.496 78.7853 286.426 76.981 286.352L76.6625 286.337C75.2221 286.266 73.6929 286.133 72.2846 286.455C71.8958 287.212 70.9029 287.368 70.3831 286.595C69.1955 284.825 68.8714 282.355 68.652 280.192L68.5747 279.413C68.3317 276.989 68.1184 274.565 67.9599 272.136C67.3979 263.532 67.193 254.92 67.4508 246.299C67.5817 241.905 67.9853 237.536 68.4627 233.168C68.6127 231.804 68.7691 230.443 68.9381 229.084L68.941 228.601C68.9412 228.447 68.9402 228.299 68.936 228.161L68.8938 226.849C68.8589 225.756 68.8263 224.663 68.8128 223.569L68.8071 222.913L68.8008 221.691C67.7571 221.592 66.6437 221.245 65.7437 221.078C64.2841 220.806 62.8282 220.512 61.3768 220.201C58.4698 219.576 55.5944 218.836 52.7381 218.018L52.1306 217.844C49.495 217.084 46.823 216.274 44.3296 215.137C43.3536 214.691 42.3796 214.188 41.524 213.529C41.4733 214.222 41.3951 214.913 41.3486 215.6C41.2559 216.959 41.1458 218.314 41.055 219.673L40.9681 220.966C40.8254 223.12 40.6969 225.273 40.6388 227.434C40.381 236.86 40.3367 246.326 40.8353 255.746C41.0824 260.461 41.4353 265.177 41.9444 269.873C42.1937 272.183 42.4578 274.499 42.7831 276.801C43.1191 279.166 43.7254 281.516 43.9113 283.898C44.0888 286.195 40.5775 286.529 40.0008 284.429C39.3101 281.91 39.1342 279.192 38.7702 276.602L38.7289 276.315C38.3254 273.563 38.0022 270.801 37.7233 268.034C36.7605 258.492 36.5106 248.901 37.0155 239.322C37.2556 234.735 37.8248 230.165 38.5137 225.626L38.5937 225.103C38.9073 223.07 39.2009 221.037 39.5561 219.013L39.6923 218.255C40.0113 216.515 40.2564 214.624 40.774 212.884L40.6201 212.742C40.3325 212.474 40.0207 212.164 39.7937 211.83C39.012 211.724 38.3465 211.162 38.4289 210.141C38.6972 206.787 39.9226 203.376 41.0148 200.21C42.1113 197.027 43.3831 193.903 44.824 190.86C49.8923 180.163 57.1916 170.452 66.1177 162.672C70.8522 158.544 76.0409 154.883 81.7747 152.278C84.6015 150.99 87.5254 149.995 90.5888 149.458C92.1057 149.192 93.6374 148.985 95.1796 148.94C96.4308 148.201 97.9164 148.512 99.1279 149.323L99.1937 149.367H99.196L99.5064 149.429V149.429C99.5824 149.443 99.5803 149.564 99.5064 149.581C99.5022 149.581 99.4958 149.583 99.4916 149.585C99.6902 149.741 99.8782 149.908 100.054 150.088C100.632 150.68 100.63 151.394 100.332 151.971C102.105 153.615 103.225 155.727 104.397 157.855C105.654 160.133 107.3 162.103 109.303 163.764C116.644 169.856 127.442 172.55 136.641 169.674C143.406 167.56 149.184 161.839 150.781 154.951C150.403 155.086 149.993 155.108 149.604 154.968C147.779 154.317 147.083 152.321 146.385 150.652L146.351 150.572C145.668 148.955 145.096 147.313 144.644 145.618C144.188 143.906 143.919 142.099 143.807 140.332C143.764 139.633 143.783 138.935 143.819 138.236L143.851 137.659C143.876 137.135 143.868 136.6 144.308 136.255ZM114.606 131.544C114.631 131.481 114.73 131.447 114.768 131.523C116.384 134.858 115.324 139.427 113.796 142.608C112.197 145.935 109.789 148.458 106.935 150.642C106.542 150.942 106.138 151.238 105.728 151.527C103.347 153.21 101.226 148.674 103.975 147.807C106.84 146.351 109.168 143.756 110.786 141.029C111.661 139.556 112.436 138.022 113.03 136.411C113.621 134.805 113.976 133.133 114.606 131.544Z" fill="black"/>
<path fill-rule="evenodd" clip-rule="evenodd" d="M92.9217 59.6854C94.0151 58.5092 95.4134 57.633 96.9421 57.353C95.5448 58.0527 94.1789 58.7821 92.9217 59.6854ZM90.7802 69.8268C90.5869 68.9305 90.457 68.0255 90.4161 67.1207C90.6605 67.4931 91.0507 67.7419 91.489 67.8704C91.2059 68.5059 90.9651 69.1607 90.7802 69.8268ZM163.94 83.8802C162.678 78.614 156.79 68.4846 155.398 66.535C153.887 61.7075 162.129 57.8361 157.647 54.0612C155.617 52.3579 152.935 51.7551 150.419 51.1511C132.999 46.9571 114.283 49.0722 98.1261 56.7846C95.6685 56.2662 93.1081 57.2794 91.321 59.059C82.925 67.5189 94.3671 82.783 96.8692 92.3204C101.162 102.955 92.3192 104.744 93.2675 113.742C94.0043 118.39 98.7008 119.619 102.664 120.321C103.299 120.47 104.148 120.493 104.353 121.166C104.996 125.095 107.197 128.839 110.152 131.381C109.894 132.148 110.091 133.08 111.003 133.754C119.26 139.906 129.672 142.985 139.971 142.431C152.245 141.772 158.592 134.719 160.124 132.903C168.592 121.438 167.58 106.311 165.853 92.6476C164.649 83.1293 166.175 93.2093 163.94 83.8802Z" fill="#E9BEA0"/>
<path fill-rule="evenodd" clip-rule="evenodd" d="M126.094 40.0596C126.48 38.8506 127.572 38.1236 128.822 38.2737C129.929 38.4047 131.114 39.5058 130.979 40.7211C130.954 40.9557 130.92 41.1755 130.88 41.3826L130.885 41.3845V41.3845L130.89 41.3847L130.863 41.465C130.781 41.8518 130.667 42.1984 130.498 42.526C130.283 43.1537 130.077 43.7836 129.872 44.4155C130.167 44.4028 130.469 44.4197 130.775 44.4768C131.091 43.6652 131.409 42.8557 131.725 42.042C132.065 41.1734 132.303 40.0575 132.973 39.3854C133.831 38.5273 135.32 38.3497 136.366 38.9627C137.47 39.6094 137.864 40.7591 137.624 41.9913C137.502 42.6198 137.083 43.0572 136.565 43.332L136.509 43.3609L136.11 44.3077C136.233 44.2549 136.359 44.2063 136.496 44.1661C136.711 44.1027 136.922 44.0625 137.129 44.0456C137.698 43.0121 138.324 42.0082 138.971 41.0233C139.715 39.8905 141.17 39.4086 142.391 40.1251C143.483 40.7655 144.069 42.4478 143.287 43.5532C142.692 44.3923 142.129 45.2482 141.575 46.1126C141.67 46.1295 141.765 46.1507 141.855 46.1782C141.897 46.1211 141.942 46.064 141.988 46.007C142.593 45.2546 143.297 44.6903 144.02 44.0647C144.697 43.4771 145.009 42.5535 145.899 42.1076C147.018 41.5475 148.368 41.8159 149.034 42.9318C150.463 45.3222 148.064 47.0679 146.529 48.5157C147.864 47.6809 149.253 46.9179 150.678 46.2585C151.479 45.8886 152.293 45.5314 153.12 45.2229C154.344 44.7663 155.335 44.9124 156.341 45.7618C156.79 46.1422 157.013 46.973 156.807 47.5266C156.406 48.5876 155.774 49.2322 154.665 49.5386C153.885 49.7542 153.086 49.9 152.306 50.1262C150.999 50.5024 149.73 50.961 148.498 51.5338C148.587 51.5887 148.671 51.6479 148.749 51.7155C149.668 51.4175 150.604 51.1597 151.545 50.9399C153.104 50.5733 154.691 50.3256 156.285 50.1707L156.815 50.1213C158.726 49.9374 161.025 49.5981 162.198 51.4323C162.583 52.0368 162.625 53.0344 162.198 53.6325C161.38 54.7822 160.566 55.0105 159.212 55.0316C160.545 55.1732 161.875 55.3486 163.199 55.5537C164.111 55.6932 165.024 55.8513 165.933 56.0267L166.387 56.1158C167.493 56.3378 168.729 56.4667 169.68 57.1092C171.754 58.5126 170.78 61.2453 168.482 61.537C167.371 61.6765 166.138 61.2052 165.048 60.9854C163.99 60.7719 162.927 60.5838 161.86 60.4189C161.308 60.3323 160.755 60.2562 160.201 60.1865C161.329 60.3492 162.448 60.5796 163.538 60.905L163.841 60.9966C165.948 61.6404 168.792 62.6658 169.45 64.9228C169.848 66.2945 168.758 67.4907 167.439 67.571C166.212 67.645 165.189 66.9116 164.148 66.3706C163.389 65.9775 162.617 65.6837 161.799 65.4322C160.954 65.1722 160.091 64.9566 159.223 64.7812C159.957 65.1866 160.672 65.6322 161.358 66.1307L161.673 66.3643C163.497 67.7267 166.279 69.836 165.636 72.3898C165.434 73.1951 164.538 73.9644 163.677 73.882C161.439 73.6727 160.203 71.2823 158.514 70.0016C158.074 69.6676 157.591 69.3379 157.085 69.0167C159.644 72.077 161.681 75.615 163.231 79.2693C166.636 87.3086 167.681 94.7536 167.706 103.398L167.706 103.665C167.711 108.433 167.603 113.288 167.139 118.035C166.709 122.421 165.921 126.749 163.937 130.721C160.612 137.38 154.134 142.567 146.989 144.541C139.039 146.739 130.153 145.02 123.64 139.948C121.979 138.654 124.182 135.846 125.879 137.04C132.657 141.806 141.423 143.315 149.202 140.09C155.373 137.532 160.342 132.031 162.448 125.697C163.789 121.667 164.179 117.37 164.657 113.171L164.689 112.891C165.195 108.499 165.488 104.078 165.484 99.6561C165.478 91.4452 164.302 84.6862 160.699 77.2382C159.004 73.7298 156.805 70.4858 154.178 67.6387C153.381 67.8014 152.533 67.5731 151.728 67.4865C151.317 67.4421 150.906 67.3998 150.495 67.3618C150.915 67.634 151.327 67.9171 151.731 68.2067L152.262 68.5906C153.924 69.7835 156.032 71.1423 155.605 73.4487C155.489 74.0722 154.869 74.6449 154.269 74.7865C152.091 75.3065 150.594 73.1845 149.122 71.9248C147.843 70.8301 146.504 69.8494 145.14 68.8666C144.83 68.6447 144.518 68.4228 144.204 68.203C144.499 68.5479 144.786 68.8982 145.066 69.2518L145.48 69.7779C146.733 71.3493 148.539 73.3919 147.423 75.429C147.107 76.0039 146.432 76.3865 145.779 76.3738C143.531 76.3273 142.637 73.7699 141.583 72.1552C140.677 70.7709 139.692 69.4668 138.674 68.1628C138.394 67.8056 138.111 67.4485 137.824 67.0913C133.104 67.3364 128.401 67.962 123.779 68.9617C120.604 69.6486 117.482 70.5386 114.383 71.5127L114.126 71.5949C112.448 72.1362 110.72 72.8291 109.511 74.0172C109.338 74.8358 109.471 75.6991 109.636 76.5167L109.765 77.1424C110.295 79.7591 110.656 82.3273 110.386 85.0138C110.106 87.7846 109.273 90.2764 108.257 92.8506C107.776 94.0638 107.278 93.844 107.108 95.1459C106.977 96.1376 107.058 97.1613 107.147 98.1613L107.222 99.009C107.409 101.23 107.503 103.651 106.051 105.483C105.826 105.764 105.343 105.652 105.183 105.371C105.12 105.259 105.052 105.151 104.978 105.048C104.278 104.031 103.205 103.452 101.978 103.228C101.822 103.2 101.883 102.991 102.014 102.974C103.051 102.852 104.034 103.112 104.869 103.649C104.473 102.276 101.408 102.944 100.4 103.21L100.366 103.219C99.1091 103.558 97.92 104.107 96.8722 104.885C94.764 106.449 93.5455 108.888 93.6066 111.515C93.6678 114.098 94.998 116.484 97.2834 117.72C98.3859 118.316 99.6403 118.604 100.888 118.591C102.191 118.578 103.351 118.006 104.656 118.086C105.411 118.132 105.988 118.944 105.552 119.652C105.261 120.125 104.881 120.497 104.443 120.783C105.512 123.253 106.876 125.61 108.448 127.785C109.319 128.992 110.306 130.105 111.392 131.122C112.239 131.917 114.075 132.836 113.972 134.161C113.936 134.639 113.69 134.93 113.255 135.108C111.905 135.661 110.263 133.756 109.36 132.837L109.288 132.764C108.162 131.64 107.135 130.397 106.241 129.078C104.656 126.736 103.671 124.097 103.264 121.324C101.099 121.977 98.232 121.364 96.4654 120.563C90.9123 118.048 89.0971 110.551 92.4724 105.559C93.1259 104.593 93.9439 103.767 94.8758 103.099C94.6713 102.987 94.4794 102.843 94.3087 102.662C93.364 101.656 92.6961 100.343 92.0333 99.1329L91.9538 98.9883C91.3653 97.923 90.8102 96.8411 90.2899 95.7425L90.0964 95.3298C88.9348 92.8253 87.9165 91.7305 87.088 89.0971C86.2911 86.5566 85.6628 83.9676 85.256 81.3342L85.1478 80.6371C84.9125 79.1091 84.69 77.4751 84.8617 75.9236C83.679 76.3104 82.49 76.5492 81.3199 75.968C80.5483 75.5854 80.1224 74.4695 80.386 73.6685C80.5778 73.0788 80.8983 72.616 81.3052 72.2524C81.0627 72.1299 80.835 71.9735 80.6347 71.8002L80.4598 71.6482V71.6482C79.7514 71.0308 79.7008 69.8578 80.1309 69.0843C80.173 69.0103 80.2152 68.9342 80.2553 68.8603C80.6643 68.1269 81.5097 67.6471 82.3445 67.6598C82.4794 67.6619 82.6144 67.6619 82.7514 67.6598C82.3614 67.5731 81.9798 67.44 81.6172 67.216C79.9812 66.2078 80.1878 63.4751 82.1674 62.9932C82.9981 62.7924 83.9151 62.8748 84.8301 63.0904C84.7964 63.0714 84.7626 63.0524 84.7289 63.0312C84.0374 62.6064 83.4577 61.7758 83.523 60.9241C83.5947 59.9814 83.8983 59.3094 84.7289 58.8148C85.4499 58.3879 86.4703 58.3477 87.1871 58.8148C87.809 59.2227 88.4183 59.6729 89.0044 60.1569C88.4162 59.4319 87.906 58.6436 87.6994 57.8067C87.4443 56.7647 87.8702 55.6297 88.8062 55.0802C89.5525 54.6427 90.341 54.6913 91.0451 55.0295C91.0072 54.4821 91.14 53.9241 91.5026 53.4296C92.2447 52.4153 93.594 51.8318 94.7682 52.5715C94.9221 52.6687 95.1288 52.8357 95.329 53.0407C94.939 51.7959 95.2911 50.4897 96.6214 49.9275C97.433 49.583 98.5314 49.7563 99.2356 50.3502C98.7886 47.926 102.358 46.1443 103.745 48.6488C104.06 49.2162 104.371 49.8136 104.65 50.4248L104.753 50.6546L104.763 50.6503L104.692 50.4823V50.4823L104.62 50.3143C104.234 49.416 103.743 48.4819 103.608 47.5076C103.41 46.0661 104.051 44.6987 105.615 44.4874C106.422 44.3775 107.321 44.7452 107.862 45.3879C107.569 43.1516 110.061 41.5263 111.855 43.196C112.705 43.9865 113.158 45.1425 113.698 46.157C114.004 46.7298 114.316 47.3004 114.621 47.8753C114.699 47.7823 114.784 47.6893 114.872 47.5984C114.419 46.2373 114.067 44.8424 113.77 43.4391C113.487 42.116 114.147 40.7422 115.509 40.3684C116.746 40.0258 118.296 40.7911 118.572 42.112C118.766 43.0417 118.996 43.9613 119.249 44.8762C119.422 44.834 119.593 44.8044 119.761 44.7832C119.775 44.6113 119.791 44.4385 119.809 44.2666L119.875 43.6552C120.023 42.2583 120.171 40.6637 120.9 39.4762C122.141 37.4473 125.325 38.2885 125.359 40.6873C125.377 41.9279 124.874 43.158 124.699 44.3859C124.623 44.9206 124.578 45.4617 124.553 46.0027C124.893 44.2063 125.359 42.433 125.898 40.6873C125.961 40.478 126.029 40.2688 126.094 40.0596ZM98.6284 109.336C101.422 108.903 103.975 110.465 105.63 112.652C105.931 113.052 105.733 113.616 105.461 113.952C105.265 114.199 105.002 114.229 104.704 114.267C104.363 114.311 103.931 114.034 103.781 113.736C102.716 111.606 100.817 110.26 98.6284 109.431C98.5883 109.416 98.5757 109.344 98.6284 109.336ZM102.501 71.1652L102.585 71.0742C103.151 70.4864 102.257 69.5886 101.691 70.1776C101.094 70.7977 100.698 71.551 100.317 72.3144C99.9536 73.0423 101.044 73.6852 101.409 72.9545L101.575 72.6225C101.836 72.1061 102.114 71.596 102.501 71.1652V71.1652ZM94.6559 69.9589C95.457 69.8236 95.1174 68.6014 94.3196 68.7362C93.2862 68.9108 92.2567 69.1092 91.2231 69.284C90.4222 69.4193 90.7618 70.6415 91.5595 70.5069C92.593 70.3321 93.6224 70.1337 94.6559 69.9589ZM142.379 61.6146C141.605 61.3556 141.273 62.58 142.043 62.8374C143.107 63.1931 144.161 63.5577 145.17 64.0516C145.899 64.4084 146.541 63.3151 145.809 62.9566C144.701 62.4145 143.547 62.0051 142.379 61.6146ZM94.4737 59.9711C93.7179 59.668 93.3897 60.8941 94.1375 61.194L96.8697 62.2894V62.2894C97.6255 62.5925 97.9538 61.3666 97.206 61.0667L94.4737 59.9711V59.9711ZM151.92 56.9937L151.82 56.9306C151.135 56.4855 150.5 57.5828 151.181 58.0256C151.581 58.2854 152.068 58.4616 152.434 58.7711L152.511 58.8395C153.102 59.3996 153.998 58.5047 153.405 57.9428C152.971 57.532 152.422 57.3033 151.92 56.9937V56.9937Z" fill="black"/>
<path fill-rule="evenodd" clip-rule="evenodd" d="M134.789 112.016C141.206 112.016 146.408 107.994 146.408 103.033C146.408 98.0726 141.206 94.051 134.789 94.051C128.371 94.051 123.169 98.0726 123.169 103.033C123.169 107.994 128.371 112.016 134.789 112.016Z" fill="white"/>
<path fill-rule="evenodd" clip-rule="evenodd" d="M153.38 108.634C158.398 108.634 163.31 105.37 163.31 101.343C163.31 97.3156 159.243 94.051 154.225 94.051C149.208 94.051 145.141 97.3156 145.141 101.343C145.141 103.552 145.87 102.119 147.803 103.456C149.394 104.556 151.115 108.634 153.38 108.634Z" fill="white"/>
<path fill-rule="evenodd" clip-rule="evenodd" d="M154.378 120.877L154.552 120.867C155.742 120.8 156.897 120.626 157.96 121.293C159.372 122.179 159.379 124.194 157.96 125.079C156.844 125.775 155.63 125.547 154.378 125.514C153.347 125.487 152.315 125.469 151.283 125.458C149.222 125.436 147.161 125.431 145.099 125.441C143.239 125.45 141.377 125.429 139.517 125.384L138.72 125.363C136.813 125.311 134.816 125.377 132.937 125.005L132.856 124.991L132.858 124.987V124.987C132.533 124.878 132.36 124.359 132.75 124.178C134.614 123.313 136.745 122.951 138.748 122.54C140.775 122.124 142.837 121.823 144.893 121.588C146.947 121.353 149.015 121.187 151.077 121.056C152.177 120.985 153.277 120.927 154.378 120.877ZM148.139 94.3053L148.275 94.2142C149.768 93.2278 151.914 92.278 153.634 93.0269C153.732 93.0691 153.814 93.1243 153.885 93.1877C154.307 93.1959 154.733 93.231 155.159 93.2953C158.527 93.8031 161.639 96.0145 163.161 99.059C164.891 102.519 164.069 106.166 161.009 108.52C159.505 109.676 157.738 110.508 155.835 110.696C155.213 110.757 154.554 110.77 153.957 110.581C154.24 111.183 154.455 111.812 154.565 112.476C154.944 114.748 154.043 116.621 151.928 117.602C150.069 118.465 147.496 118.795 145.658 117.707C144.104 116.787 144.613 113.742 146.657 114.015C148.038 114.199 149.282 114.66 150.646 114.071C151.758 113.591 151.084 111.973 150.749 111.121C150.188 109.698 149.363 108.358 148.694 106.976L148.571 106.717C148.15 105.816 147.628 104.864 147.228 103.893C147.008 105.033 146.613 106.153 146.147 107.189C145.043 109.647 142.906 111.151 140.36 111.856C137.742 112.58 134.669 112.748 131.97 112.659C129.225 112.568 126.335 111.849 124.326 109.858C120.647 106.212 121.704 99.8319 125.575 96.784C128.08 94.8123 131.609 93.4612 134.85 93.8112C136.473 93.4458 138.289 93.6533 139.913 94.0215C142.111 94.5196 144.209 95.5859 145.645 97.2841C145.752 97.0169 145.875 96.761 146.016 96.5167C145.952 96.4875 145.913 96.3937 145.975 96.3374C146.09 96.2345 146.208 96.1358 146.325 96.0369C146.793 95.3805 147.398 94.8088 148.139 94.3053ZM121.515 111.396C121.383 111.208 121.641 110.964 121.827 111.084C123.347 112.064 124.938 112.955 126.681 113.475C128.383 113.982 130.153 113.93 131.863 114.364C132.505 114.527 132.403 115.363 131.863 115.567C129.981 116.281 127.857 115.682 126.069 114.925C124.255 114.157 122.659 113.014 121.515 111.396ZM131.716 95.7332L131.761 95.6785V95.6785L131.65 95.7152V95.7152C129.52 96.4326 127.767 97.6153 126.341 99.3418C123.911 102.284 123.882 106.962 127.515 108.951C129.474 110.022 131.786 110.073 133.961 109.959L134.401 109.936C136.31 109.831 138.258 109.674 140.101 109.158C142.11 108.594 143.506 107.379 144.275 105.422L144.339 105.257C145.105 103.242 145.505 101.001 144.081 99.1767C141.669 96.0874 136.096 95.4703 132.652 96.947C131.827 97.3006 131.165 96.4376 131.716 95.7332ZM153.821 94.9043C153.764 94.9601 153.702 95.011 153.634 95.0522C152.943 95.4671 152.165 95.4713 151.399 95.6615C150.693 95.8368 150.002 96.0506 149.352 96.3814C148.331 96.9003 147.278 97.521 146.313 98.198C146.52 98.5285 146.705 98.8775 146.864 99.2469C147.302 100.268 147.449 101.343 147.403 102.423C148.076 103.005 148.638 103.729 149.233 104.383L149.758 104.96C150.37 105.636 150.979 106.319 151.548 107.028C151.887 107.45 152.231 107.881 152.561 108.326C152.604 108.193 152.665 108.063 152.751 107.94C153.073 107.476 153.569 107.242 154.137 107.376C154.634 107.494 154.966 107.719 155.485 107.722C156.121 107.726 156.733 107.589 157.335 107.393C158.518 107.007 159.677 106.314 160.542 105.415C162.494 103.387 161.464 100.53 159.941 98.5981C158.399 96.6412 156.184 95.3705 153.821 94.9043ZM136.435 99.7751C137.062 99.5942 137.994 99.8795 138.27 100.522L138.468 100.99C138.462 100.976 138.457 100.965 138.451 100.952C138.521 101.118 138.588 101.278 138.642 101.448L138.827 101.592V101.592C138.985 101.767 139.131 101.953 139.266 102.148C139.584 102.691 139.676 103.387 139.513 103.996C139.244 105.001 138.321 105.647 137.297 105.653C134.299 105.671 133.564 100.604 136.435 99.7751ZM154.522 98.8647C155.907 98.8028 156.83 100.027 156.94 101.284C157.003 102 156.859 102.782 156.653 103.466C156.347 104.487 155.375 105.127 154.326 104.986C153.491 104.874 152.754 104.239 152.546 103.423C152.272 102.75 152.117 102.01 152.104 101.284C152.078 99.9285 153.232 98.9224 154.522 98.8647ZM136.241 87.5513C137.646 87.3247 138.988 88.0078 139.193 89.5183C139.398 91.0419 138.277 92.0488 136.87 92.1984C134.218 92.4804 131.51 92.5474 128.845 92.6638C127.733 92.7122 126.62 92.7328 125.508 92.7426L124.952 92.7467C123.917 92.7528 122.567 92.9572 121.632 92.4476C121.571 92.4146 121.574 92.3396 121.612 92.2923C122.27 91.4829 123.628 91.138 124.599 90.7815L124.682 90.7509C125.911 90.287 127.154 89.8527 128.414 89.4767L129.054 89.2867C131.407 88.5933 133.828 87.9411 136.241 87.5513ZM145.159 86.8102C146.028 86.4837 146.885 86.6872 147.475 87.2395C149.45 87.7895 151.482 88.2109 153.47 88.6925L154.011 88.8254C156.502 89.4474 159.24 89.9268 161.558 91.067C161.804 91.1881 161.649 91.5022 161.433 91.5286C158.851 91.8422 156.07 91.3437 153.504 91.0435C150.875 90.736 148.232 90.2288 145.595 90.0301C143.703 89.8875 143.427 87.4618 145.159 86.8102Z" fill="black"/>
</svg>
