<svg width="240" height="324" viewBox="0 0 240 324" fill="none" xmlns="http://www.w3.org/2000/svg">
<path fill-rule="evenodd" clip-rule="evenodd" d="M170.479 181.122C168.644 180.468 166.876 179.712 165.265 178.6C160.621 175.142 157.592 169.937 154.731 165.006C150.7 157.835 147.829 150.193 145.844 142.221C144.991 138.795 144.702 134.824 142.764 131.787C138.371 125.429 125.49 126.253 118.651 127.369C114.07 128.18 113.124 133.308 112.083 137.102C111.217 140.255 110.65 143.443 110.174 146.674C109.042 147.419 107.763 148.024 106.545 148.551C93.2646 152.625 90.9305 160.177 85.8582 171.843C77.2911 188.799 54.0443 195.439 50.5328 215.506C48.2703 228.755 54.704 241.219 61.3372 252.232C67.5147 264.263 76.1388 270.037 89.8731 267.195C102.755 264.304 115.135 259.468 127.791 255.731C133.92 254.223 140.04 250.302 146.488 251.669C159.773 254.654 173.424 256.057 187.039 255.67C206.155 256.443 206.152 238.089 204.19 223.875C202.816 201.755 191.663 187.551 170.479 181.122V181.122Z" fill="#A46030"/>
<path fill-rule="evenodd" clip-rule="evenodd" d="M171.757 213.13C173.354 214.187 174.698 215.789 175.776 217.475C171.274 217.007 166.779 216.466 162.294 215.851C162.881 215.476 163.474 215.109 164.08 214.762C166.292 213.516 169.288 211.497 171.757 213.13ZM96.9503 226.445C96.1253 226.121 95.8061 224.863 95.4846 224.142C94.4764 221.88 93.5563 219.579 92.5991 217.295C96.2337 216.259 99.7682 215.109 103.533 214.556C107.582 213.963 111.69 213.819 115.776 213.952C124.052 214.222 132.252 215.576 140.388 217.026C148.516 218.476 156.643 219.868 164.827 220.961C172.845 222.031 180.888 222.815 188.947 223.502C190.513 223.636 193.123 224.199 194.383 222.967C195.379 221.991 195.412 220.19 194.164 219.397C193.387 218.902 192.261 218.895 191.374 218.78C190.256 218.637 189.133 218.541 188.008 218.466C187.55 218.436 187.092 218.408 186.633 218.38C190.313 216.992 194.156 216.235 198.145 216.446C198.371 217.817 199.387 219.228 199.944 220.359C200.915 222.333 201.672 224.331 202.169 226.477C203.208 230.964 203.254 235.62 202.96 240.196C202.691 244.011 202.112 248.231 199.12 250.934C196.855 252.979 193.659 253.737 190.695 253.975C187.249 254.252 183.75 253.956 180.333 253.494C175.541 252.846 170.726 251.989 166.028 250.84C156.928 248.615 148.206 245.074 140.159 240.274C136.235 237.933 132.49 235.3 128.512 233.048C124.459 230.753 120.145 228.973 115.616 227.868C110.548 226.631 105.249 226.103 100.04 226.408C99.1357 226.461 97.8296 226.789 96.9503 226.445ZM91.0767 224.148C91.6093 225.877 92.0168 227.851 93.1536 229.304C94.2797 230.743 95.9785 231.252 97.7384 231.38C99.8603 231.534 102.007 231.435 104.134 231.514C108.495 231.676 112.797 232.385 116.967 233.685C120.853 234.897 124.459 236.786 127.934 238.883C131.147 240.822 134.266 242.904 137.48 244.837C136.624 245.229 135.779 245.653 134.928 246.023C133.145 246.797 131.35 247.545 129.548 248.274C125.993 249.711 122.423 251.113 118.817 252.416C111.546 255.043 104.155 257.338 96.675 259.293C93.1076 260.226 89.4894 261.315 85.7831 261.47C82.4967 261.607 79.4525 260.678 76.8019 258.723C71.3043 254.669 66.9305 248.816 63.3947 243.044C61.2941 239.614 59.4609 236.011 57.9446 232.285C57.1777 230.4 56.4822 228.487 55.8562 226.552C55.5626 225.643 55.2841 224.729 55.0205 223.811C54.9045 223.407 54.7934 223.002 54.6833 222.597C60.3049 220.881 65.9933 219.332 71.8152 218.472C74.9236 218.012 78.0734 217.78 81.2157 217.814C82.7755 217.83 84.3345 217.915 85.886 218.076C86.7212 218.162 87.5529 218.274 88.3811 218.412C88.7234 218.469 89.0751 218.553 89.4279 218.615C89.9669 220.463 90.5103 222.309 91.0767 224.148ZM207.283 216.802C207.586 216.189 207.713 215.586 207.822 214.919C207.905 214.41 208.125 213.693 207.932 213.032C207.717 212.291 207.13 211.629 206.708 210.998C206.243 210.3 205.778 209.601 205.313 208.903C204.384 207.506 203.458 206.107 202.532 204.707C198.753 198.992 195 193.261 191.241 187.533C187.905 182.45 184.625 177.321 181.188 172.306C178.248 168.017 175.045 163.8 171.021 160.465C165.934 156.248 159.877 154.262 153.549 152.711C152.858 151.994 151.935 151.602 150.949 151.682C149.555 150.1 148.447 148.995 147.945 146.984C147.704 146.021 147.779 143.314 146.842 142.744C145.728 142.067 145.146 142.963 144.839 143.973C143.811 147.353 144.99 151.896 147.705 155.282C146.561 159.236 145.045 164.856 142.34 168.024C139.443 171.417 135.437 172.473 131.114 172.542C122.871 172.675 114.636 169.61 108.349 164.299C106.438 162.684 104.663 160.881 103.057 158.964C101.852 157.525 100.428 155.305 99.4853 153.627C99.4853 152.973 98.7135 152.289 106.571 151.76C114.429 151.232 115.025 140.469 115.2 139.004C115.342 137.814 115.945 135.968 115.108 134.998C114.752 134.586 114.022 134.52 113.571 134.8C112.721 135.328 112.442 136.678 112.175 137.595C111.8 138.88 110.576 146.854 108.257 147.777C107.172 148.209 105.926 148.217 104.778 148.297C103.36 148.396 101.939 148.469 100.526 148.634C100.005 148.695 99.4367 148.863 98.9227 148.868C98.5883 148.871 98.2433 148.709 97.92 148.595C96.8291 148.209 95.7389 148.498 94.615 148.649C84.6778 149.985 74.4459 153.034 65.9698 158.521C58.499 163.357 53.2357 170.311 49.7626 178.442C46.2191 186.74 44.1879 195.713 42.4857 204.547C41.9155 207.507 41.4176 210.48 40.9898 213.464C40.5763 216.347 40.0591 219.294 39.9353 222.207C39.8863 223.359 40.1616 224.429 40.5852 225.482C41.0622 226.667 42.1898 227.134 43.2712 227.687C45.6453 228.902 48.1496 229.844 50.7298 230.511C52.3061 233.38 53.6326 236.36 54.6987 239.454C54.3032 240.238 54.295 241.408 54.2189 242.17C54.0303 244.068 53.9495 245.975 53.9326 247.881C53.8986 251.701 54.1283 255.517 54.3083 259.332C54.4908 263.2 55.0976 278.464 55.1964 280.328C55.2734 281.776 55.1698 283.801 55.9323 285.086C57.104 287.062 59.9958 286.996 61.3353 285.394C94.615 292.551 157.171 290.395 182.366 286.794C185.644 286.325 184.615 286.845 185.448 286.017C186.074 285.394 186.606 284.329 186.779 283.473C187.011 282.33 186.637 281.296 185.983 280.371C185.296 279.398 185.17 277.824 184.915 276.668C184.311 273.935 184.011 261.932 183.728 260.602C183.641 260.188 183.555 259.75 183.453 259.311C188.074 259.749 192.89 259.749 197.286 258.203C199.78 257.326 202.105 255.949 203.895 253.982C206.062 251.601 207.268 248.603 207.888 245.474C208.688 241.439 208.858 237.26 208.7 233.158C208.482 228.31 207.678 223.395 205.683 218.944C206.34 218.334 206.89 217.598 207.283 216.802Z" fill="black"/>
<path fill-rule="evenodd" clip-rule="evenodd" d="M150.989 69.0517C137.124 57.7538 114.904 54.0854 100.061 65.4837C88.5282 76.1808 83.7556 106.578 85.7966 121.853C86.3641 131.65 93.8304 142.755 104.79 139.656C106.652 139.473 108.459 138.757 110.337 138.608C112.584 138.348 114.847 138.344 117.09 138.661C121.976 139.354 126.307 141.955 131.049 143.171C139.849 145.427 149.667 143.909 157.241 138.828C182.272 122.33 170.934 85.0192 150.989 69.0517V69.0517Z" fill="#A46030"/>
<path fill-rule="evenodd" clip-rule="evenodd" d="M149.143 143.442C149.4 143.353 149.657 143.261 149.912 143.166C149.929 143.225 149.957 143.282 149.988 143.337C150.024 143.426 150.06 143.512 150.1 143.599C149.78 143.601 149.459 143.544 149.143 143.442M148.629 33.9586C148.515 33.703 148.384 33.4579 148.236 33.221C148.595 33.3374 148.953 33.498 149.278 33.7052C149.059 33.7791 148.843 33.8637 148.629 33.9586M93.8592 67.3859C93.8444 67.3834 93.8299 67.3813 93.8153 67.3788C94.0034 66.8768 94.3384 66.403 94.7084 66.0608C94.7748 65.9993 94.8467 65.9424 94.9162 65.8837C94.5235 66.3526 94.1672 66.8529 93.8592 67.3859M194.073 119.875C193.888 118.112 193.652 116.356 193.346 114.61C193.053 112.938 192.806 111.15 191.956 109.667C191.113 108.189 190.268 106.754 189.265 105.454C189.408 104.791 189.598 104.167 189.762 103.664C190.711 100.769 191.645 97.0912 189.673 94.4007C189.216 93.7773 188.657 93.2996 188.018 92.8684C187.746 92.6846 187.295 92.5176 187.087 92.264C186.939 92.0843 186.99 92.1816 186.983 92.0928C186.947 91.6151 188.065 90.607 188.326 90.2287C188.815 89.5289 189.18 88.7408 189.458 87.9355C190.559 84.7484 189.81 81.2378 189.149 78.0441C188.799 76.3514 188.413 74.6543 188.286 72.9254C188.168 71.3023 188.389 69.7171 188.52 68.1024C188.647 66.5086 188.613 64.8645 187.932 63.3891C187.599 62.6705 187.095 62.0365 186.481 61.5419C185.883 61.0581 185.136 60.777 184.553 60.2951C183.971 59.8152 184.137 59.1665 184.289 58.5029C184.498 57.6025 184.761 56.7085 184.786 55.7786C184.833 54.1575 184.173 52.5785 183.142 51.3529C182.079 50.0869 180.562 49.2307 178.921 49.0384C178.171 48.9496 177.433 49.0999 176.687 49.0471C175.949 48.9964 175.789 48.6265 175.649 47.9502C175.329 46.401 175.46 44.8708 174.699 43.4252C174.024 42.1401 172.824 41.2692 171.498 40.7558C169.068 39.8132 166.241 40.0076 163.677 40.5633C162.163 36.0998 157.439 33.1726 152.79 33.1366C152.065 31.9023 150.836 30.9809 149.434 30.4396C147.115 29.5413 144.659 30.0657 142.243 30.0657H142.232C141.99 30.0507 141.747 30.0446 141.505 30.0467C141.277 30.0338 141.049 30.0148 140.822 29.9896C138.073 29.6639 135.353 28.5353 132.629 29.6409C131.415 30.1333 130.449 30.8921 129.838 31.8601C128.917 32.1114 128.008 32.399 127.116 32.7329C123.252 32.8342 119.423 34.9118 117.469 38.2788C114.718 37.966 111.733 38.4965 109.913 40.7495C109.439 41.3358 109.072 42.0245 108.829 42.7558C106.974 43.3573 105.257 44.4291 104.133 46.0434C103.108 47.5165 102.911 49.4212 103.605 51.0025C101.948 52.2053 100.654 53.9272 100.031 55.9603C99.6519 57.1957 99.5956 58.472 99.8393 59.6879C98.1437 60.065 96.5218 60.7639 95.0849 61.8128C93.579 62.9117 91.6982 64.6606 91.5992 66.6735C91.5918 66.8212 91.5975 66.9689 91.6093 67.1163C88.2941 66.8827 84.9138 67.4458 82.673 70.1102C80.9904 72.1094 80.259 74.6839 80.7081 77.0277C76.7636 77.8309 73.034 79.8979 70.4324 82.954C68.5416 85.1753 66.8613 87.9989 66.9623 91.0231C66.9939 91.9343 67.2071 92.8515 67.576 93.6991V93.701C67.4179 93.9992 67.2553 94.331 67.0993 94.6839C64.6559 96.3978 62.8808 99.0843 61.8815 102.045C61.0743 104.444 60.5662 107.559 61.4282 110.001C61.5591 110.372 61.7257 110.723 61.9197 111.049C61.7571 111.222 61.6034 111.395 61.4537 111.571C59.807 113.5 58.1394 115.931 58.2535 118.587C58.2998 119.657 58.696 120.733 59.3434 121.616C57.0663 123.931 55.2324 126.851 55.4135 130.113C55.5695 132.951 57.1235 135.834 59.5582 137.197C59.1516 139.385 59.6955 141.692 61.3945 143.4C62.2422 144.254 63.2413 144.816 64.2998 145.116C64.536 147.693 66.8168 149.766 69.2392 150.362C69.6905 150.474 70.1417 150.542 70.5905 150.573C72.7704 151.645 75.3699 151.522 77.594 150.539C78.2497 151.374 79.1035 152.055 80.0986 152.543C80.5013 152.742 80.9274 152.907 81.372 153.04C84.5132 153.972 87.7348 152.708 90.4816 151.233C90.5701 151.186 90.7325 151.127 90.8758 151.062C91.2553 151.486 91.9468 151.907 92.3073 152.114C93.5303 152.818 95.025 153.145 96.4291 153.053C98.0756 152.943 99.528 152.397 100.873 151.622C101.069 151.656 101.267 151.675 101.466 151.685C102.731 151.753 103.858 151.351 104.873 150.717C105.543 150.806 106.23 150.797 106.926 150.675C108.459 151.066 109.951 150.444 111.151 149.457C111.682 149.02 112.131 148.506 112.612 148.016C113.111 147.507 113.491 147.388 114.075 147.046C115.456 146.237 115.622 144.184 115.023 142.7C115.137 142.441 115.203 142.151 115.203 141.83C115.198 139.027 113.91 136.457 112.329 134.215C111.623 133.215 110.856 132.236 110.014 131.349C109.337 130.637 108.387 129.481 107.385 129.191C107.324 129.147 107.261 129.102 107.198 129.06C107.392 128.379 107.505 127.686 107.457 126.978C107.406 126.251 107.172 125.562 106.797 124.975C108.056 122.529 108.587 119.847 108.334 117.049C109.359 115.593 110.135 113.984 110.535 112.222C110.782 111.131 110.923 109.984 110.904 108.865C110.895 108.329 110.699 107.65 110.695 107.094C110.725 107.27 110.953 106.615 111.041 106.452C112.057 104.56 113.362 103.085 113.579 100.855C113.706 99.5511 113.398 98.1099 112.618 97.0405C113.118 95.0665 113.111 92.9464 112.325 91.0635C112.114 90.5605 111.872 90.0681 111.594 89.601C111.722 89.2079 111.84 88.8105 111.992 88.4531C112.051 88.3115 112.11 88.168 112.169 88.0243C112.74 87.519 113.272 86.9675 113.719 86.4263C114.709 85.2281 115.466 83.8544 115.561 82.2711C115.608 81.4786 115.422 80.7198 115.192 79.9676C115.091 79.6274 115.03 79.249 114.91 78.9172C114.842 78.7331 114.68 78.5452 114.623 78.3719C114.61 78.3339 114.6 78.3022 114.591 78.2768C114.6 78.2515 114.606 78.1986 114.606 78.0991C114.608 77.3403 114.707 76.5985 114.712 75.8674C115.405 76.5691 116.24 77.093 117.189 77.3997C119.101 78.0147 121.095 77.7358 122.788 76.7868C124.61 78.038 126.657 79.1706 128.803 79.6252C130.078 79.8956 131.356 79.7838 132.635 79.9507C133.907 80.1177 135.136 80.6735 136.333 81.1068C138.998 82.0727 141.656 83.0637 144.33 84.0044C146.489 84.7632 148.824 85.3655 151.085 84.9386C151.719 85.919 152.544 86.7477 153.6 87.3564C154.356 87.7897 155.187 88.0833 156.045 88.2293C156.804 88.3582 157.694 88.3075 158.309 88.8295C158.91 89.3368 159.285 90.0932 159.825 90.6641C160.426 91.3023 161.168 91.8561 161.946 92.2534C162.57 92.5726 163.207 92.8027 163.854 92.953C163.797 94.3965 163.742 95.8379 163.725 97.2836C163.694 100.424 163.706 103.565 163.664 106.706C163.622 109.835 163.523 112.966 163.359 116.092C163.202 119.025 162.983 121.969 162.285 124.831C159.971 134.327 151.299 141.126 141.593 141.473C138.712 141.576 135.859 141.17 133.103 140.321C130.249 139.439 127.7 137.626 124.774 137.068C124.009 136.924 123.288 137.696 123.726 138.437C124.481 139.712 125.398 140.49 126.652 141.257C127.966 142.058 129.429 142.652 130.873 143.172C133.529 144.127 136.34 144.681 139.158 144.835C141.309 144.953 143.467 144.806 145.574 144.4C145.721 144.854 145.983 145.296 146.181 145.717C146.21 145.778 146.31 145.736 146.291 145.672C146.259 145.567 146.238 145.474 146.229 145.397C146.938 146.323 148.032 146.963 149.156 147.274C149.948 147.494 150.79 147.561 151.605 147.469C151.869 147.439 152.12 147.395 152.369 147.34C153.199 148.069 154.262 148.555 155.328 148.798C155.145 149.914 155.695 151.131 156.971 151.448C157.506 151.582 158.02 151.584 158.535 151.535C158.95 151.73 159.397 151.882 159.872 151.985C160.489 152.121 161.227 151.947 161.693 151.499C161.948 151.679 162.186 151.803 162.422 152.089C163.395 153.264 165.49 152.328 165.583 150.969C165.89 150.969 166.2 150.973 166.511 150.983C166.584 151.017 166.658 151.051 166.734 151.087C168.089 151.719 169.493 152.271 170.993 151.774C171.269 151.683 171.522 151.567 171.751 151.432C172.808 151.527 173.849 151.529 174.92 151.182C175.553 150.977 176.147 150.652 176.642 150.225C178.295 150.711 180.039 150.931 181.683 150.328C182.914 149.878 183.905 149.168 184.603 148.231C185.67 148.27 186.753 148.012 187.73 147.502C189.399 146.636 190.569 144.989 191.385 143.339C193.182 139.697 194.244 135.785 194.661 131.751C195.072 127.777 194.486 123.825 194.073 119.875" fill="black"/>
<path fill-rule="evenodd" clip-rule="evenodd" d="M150.578 122.332C150.725 122.292 150.854 122.489 150.732 122.597C150.235 123.038 149.919 123.861 149.556 124.422C149.211 124.955 148.878 125.483 148.574 126.042C148.234 126.667 147.905 127.291 147.64 127.953L147.588 128.087V128.087C147.667 128.275 147.729 128.462 147.775 128.584L147.788 128.619C148.241 129.775 147.291 131.06 146.22 131.383C144.387 131.935 142.815 130.43 142.771 128.64C142.737 127.231 143.691 125.976 144.661 125.045C145.509 124.231 146.459 123.538 147.521 123.03C147.99 122.806 148.477 122.619 148.986 122.51C149.507 122.399 150.068 122.47 150.578 122.332ZM147.124 127.436C147.258 127.499 147.373 127.654 147.47 127.835C147.422 127.682 147.322 127.529 147.124 127.436ZM148.271 107.866C149.866 108.837 152.297 111.099 150.581 113.504C148.56 115.624 145.652 113.193 144.219 112.093C142.89 111.241 141.396 113.433 142.629 114.428C152.986 122.099 157.19 108.12 149.078 106.726C148.184 106.572 147.853 107.566 148.271 107.866ZM135.157 98.5512L135.438 98.5275C136.661 98.4197 137.899 98.2554 139.105 98.5321C140.725 98.9041 140.606 101.262 139.105 101.695C137.782 102.077 136.316 101.912 134.95 101.925C134.735 101.927 134.521 101.932 134.306 101.936C134.264 102.447 134.096 102.887 133.84 103.327C133.656 103.643 133.422 103.943 133.191 104.223C132.643 104.89 131.349 104.875 130.795 104.223C130.386 103.741 130.06 103.186 130.055 102.533C130.053 102.366 130.074 102.189 130.114 102.014L129.368 102.027C127.544 102.055 125.706 102.043 123.914 101.753C123.277 101.885 122.756 100.734 123.635 100.39C126.026 99.4547 128.697 99.1793 131.234 98.8984C132.538 98.7538 133.849 98.6543 135.157 98.5512ZM155.525 97.5845L155.59 97.578C157.172 97.4159 158.916 97.1352 160.502 97.2967C162.869 97.5374 162.865 100.739 160.502 100.978C159.634 101.066 158.72 101.023 157.809 100.939C158.275 101.928 157.722 103.109 156.6 103.26C155.557 103.4 154.476 102.386 154.818 101.298L154.834 101.25C154.901 101.061 154.961 100.85 155.032 100.642L154.654 100.61C153.526 100.511 151.96 100.307 151.545 99.4155C151.419 99.1469 151.448 98.8975 151.641 98.668C152.432 97.7261 154.382 97.6951 155.525 97.5845V97.5845ZM138.701 90.2553C139.846 89.8391 141.036 90.813 141.184 91.9106C141.355 93.1754 140.444 94.0081 139.288 94.1591L139.23 94.1661C136.679 94.4472 134.147 94.9612 131.592 95.2518C130.432 95.3836 129.263 95.4704 128.095 95.5016L127.26 95.5203C126.237 95.5462 125.14 95.5695 124.196 95.2172L124.199 95.2108V95.2108C123.948 95.1381 123.833 94.7763 124.112 94.5785C125.118 93.8673 126.473 93.5984 127.643 93.2605C128.82 92.9204 130.005 92.607 131.194 92.3126C133.69 91.695 136.283 91.1341 138.701 90.2553ZM149.261 90.5509C149.565 88.9508 151.831 88.7792 152.663 89.9435C153.201 90.1282 153.989 90.321 154.478 90.466C155.329 90.7185 156.181 90.9696 157.035 91.2129C158.804 91.7167 160.529 92.3554 162.268 92.9508C162.447 93.0123 162.398 93.2397 162.226 93.2624C159.799 93.5783 157.413 93.7253 154.972 93.624L154.471 93.6014C152.32 93.5176 148.669 93.6775 149.261 90.5509Z" fill="black"/>
</svg>
